<?xml version="1.0" encoding="iso-8859-1"?>
<!-- Uploaded to: SVG Repo, www.svgrepo.com, Generator: SVG Repo Mixer Tools -->
<svg fill="#000000" version="1.1" id="Layer_1" xmlns="http://www.w3.org/2000/svg" xmlns:xlink="http://www.w3.org/1999/xlink" 
	 viewBox="0 0 512 512" xml:space="preserve">
<g>
	<g>
		<rect x="239.251" y="377.66" width="33.499" height="30.417"/>
	</g>
</g>
<g>
	<g>
		<rect x="264.599" y="334.062" width="33.499" height="30.417"/>
	</g>
</g>
<g>
	<g>
		<rect x="213.904" y="334.062" width="33.499" height="30.417"/>
	</g>
</g>
<g>
	<g>
		<path d="M291.994,95.803V78.319h20.56V47.902h-20.56V35.994C291.994,16.146,275.847,0,256,0
			c-19.847,0-35.994,16.146-35.994,35.994v11.908h-20.561v30.417h20.561v17.484H79.148v239.346C79.148,432.665,158.484,512,256,512
			s176.851-79.335,176.851-176.852V95.803H291.994z M250.424,35.994c0-3.075,2.501-5.576,5.576-5.576
			c3.074,0,5.576,2.501,5.576,5.576v11.908h-11.153V35.994z M250.424,78.319h11.153v17.484h-11.153V78.319z M402.434,335.148
			c0,80.744-65.69,146.434-146.434,146.434s-146.434-65.69-146.434-146.434V126.22h110.441h71.987h110.441V335.148z"/>
	</g>
</g>
<g>
	<g>
		<path d="M129.844,146.498v188.65c0,69.562,56.593,126.156,126.156,126.156c69.562,0,126.156-56.593,126.156-126.156v-188.65
			H129.844z M351.739,335.148c0,52.79-42.948,95.739-95.739,95.739c-52.791,0-95.739-42.948-95.739-95.739V176.915h191.478V335.148z
			"/>
	</g>
</g>
</svg>